<?xml version="1.0" encoding="UTF-8"?>
<svg xmlns="http://www.w3.org/2000/svg" width="128" height="128" viewBox="0 0 128 128">
  
  <g transform="translate(15.36, 26.29241904761905) scale(0.9264761904761905)">
    <path fill="#2563A8" fill-rule="evenodd" d="M21.5,15.7c-3.7,2.8-8.8,6.7-16.2,6.7S0,20,0,17.1s2.4-5.3,5.3-5.3,6-1.7,10-4.8l.3-.2C19.3,3.9,24.4,0,31.8,0s12.5,3.9,16.2,6.7l.3.2c4,3.1,6.5,4.8,10,4.8s6-1.7,10-4.8l.3-.2c3.7-2.8,8.8-6.7,16.2-6.7s12.5,3.9,16.2,6.7l.3.2c4,3.1,6.5,4.8,10,4.8s5.3,2.4,5.3,5.3-2.4,5.3-5.3,5.3c-7.4,0-12.5-3.9-16.2-6.7l-.3-.2c-4-3.1-6.5-4.8-10-4.8s-6,1.7-10,4.8l-.3.2c-3.7,2.8-8.8,6.7-16.2,6.7s-12.5-3.9-16.2-6.7l-.3-.2c-4-3.1-6.5-4.8-10-4.8s-6,1.7-10,4.8l-.3.2ZM21.5,45.1c-3.7,2.8-8.8,6.7-16.2,6.7s-5.3-2.4-5.3-5.3,2.4-5.3,5.3-5.3,6-1.7,10-4.8l.3-.2c3.7-2.8,8.8-6.7,16.2-6.7s12.5,3.9,16.2,6.7l.3.2c4,3.1,6.5,4.8,10,4.8s6-1.7,10-4.8l.3-.2c3.7-2.8,8.8-6.7,16.2-6.7s12.5,3.9,16.2,6.7l.3.2c4,3.1,6.5,4.8,10,4.8s5.3,2.4,5.3,5.3-2.4,5.3-5.3,5.3c-7.4,0-12.5-3.9-16.2-6.7l-.3-.2c-4-3.1-6.5-4.8-10-4.8s-6,1.7-10,4.8l-.3.2c-3.7,2.8-8.8,6.7-16.2,6.7s-12.5-3.9-16.2-6.7l-.3-.2c-4-3.1-6.5-4.8-10-4.8s-6,1.7-10,4.8l-.3.2ZM5.3,81.4c7.4,0,12.5-3.9,16.2-6.7l.3-.2c4-3.1,6.5-4.8,10-4.8s6,1.7,10,4.8l.3.2c3.7,2.8,8.8,6.7,16.2,6.7s12.5-3.9,16.2-6.7l.3-.2c4-3.1,6.5-4.8,10-4.8s6,1.7,10,4.8l.3.2c3.7,2.8,8.8,6.7,16.2,6.7s5.3-2.4,5.3-5.3-2.4-5.3-5.3-5.3-6-1.7-10-4.8l-.3-.2c-3.7-2.8-8.8-6.7-16.2-6.7s-12.5,3.9-16.2,6.7l-.3.2c-4,3.1-6.5,4.8-10,4.8s-6-1.7-10-4.8l-.3-.2c-3.7-2.8-8.8-6.7-16.2-6.7s-12.5,3.9-16.2,6.7l-.3.2c-4,3.1-6.5,4.8-10,4.8S0,73.1,0,76s2.4,5.3,5.3,5.3Z"/>
  </g>
</svg>