<?xml version="1.0" encoding="UTF-8"?>
<svg id="Layer_1" xmlns="http://www.w3.org/2000/svg" version="1.1" viewBox="0 0 807.6 142.2">
  <!-- Generator: Adobe Illustrator 30.5.1, SVG Export Plug-In . SVG Version: 2.1.4 Build 3)  -->
  <defs>
    <style>
      .st0 {
        fill: #c96023;
      }
    </style>
  </defs>
  <g>
    <path d="M245.3,112.6c-2.6,0-3.8-1.2-3.8-3.8V40.4c0-2.6,1.2-3.8,3.8-3.8h16.4c2.6,0,3.8,1.2,3.8,3.8v52.3h14.5v-17.1c0-2.6,1.2-3.8,3.8-3.8h15.3c2.6,0,3.8,1.2,3.8,3.8v33.3c0,2.6-1.2,3.8-3.8,3.8h-53.7Z"/>
    <path d="M332.6,112.6h-15.5c-2.6,0-3.8-1.2-3.8-3.8v-27.9c0-4.2,1.3-9.5,4.1-16.9l9.2-24c.8-2.4,2.5-3.5,5.4-3.5h28.4c2.7,0,4.4,1.1,5.3,3.5l9.2,24c2.9,7.4,4.1,12.7,4.1,16.9v27.9c0,2.6-1.2,3.8-3.8,3.8h-15.9c-2.9,0-4.1-1.2-4.1-3.8v-14.8h-18.7v14.8c0,2.6-1.2,3.8-3.8,3.8ZM337.5,74.8h16.6l-5-16c-.5-1.3-1.2-1.8-2-1.8h-2.6c-.8,0-1.5.5-2,1.8l-5,16Z"/>
    <path d="M395.8,112.6c-2.6,0-3.8-1.2-3.8-3.8V40.4c0-2.6,1.2-3.8,3.8-3.8h16.4c2.6,0,3.8,1.2,3.8,3.8v24.3h4.2l10.9-24.6c1.1-2.5,2.5-3.5,5.3-3.5h16.3c2.4,0,3.3,1.3,2.3,3.5l-10.8,24.6c7.9.4,13,5.9,13,14.4v29.8c0,2.6-1.2,3.8-3.8,3.8h-16.3c-2.6,0-3.8-1.2-3.8-3.8v-20.6c0-2.3-1.2-3.6-3.4-3.6h-13.9v24.2c0,2.6-1.2,3.8-3.8,3.8h-16.4Z"/>
    <path d="M474.5,112.6c-2.6,0-3.8-1.2-3.8-3.8V40.4c0-2.6,1.2-3.8,3.8-3.8h49c2.6,0,3.8,1.2,3.8,3.8v12.4c0,2.6-1.2,3.8-3.8,3.8h-29.1v8.1h20.6c2.6,0,3.8,1.2,3.8,3.8v11.3c0,2.6-1.2,3.8-3.8,3.8h-20.6v9.1h29.1c2.6,0,3.8,1.2,3.8,3.8v12.4c0,2.6-1.2,3.8-3.8,3.8h-49Z"/>
    <path d="M541.7,112.6c-2.6,0-3.8-1.2-3.8-3.8v-12.4c0-2.6,1.2-3.8,3.8-3.8h28.4c1.8,0,2.7-1.4,2.7-3.1,0-2.4-1-3.4-2.7-3.6l-15.8-2.2c-9.9-1.5-16.4-5.7-16.4-17.5v-11.1c0-12,8.1-18.6,21.9-18.6h29.6c2.6,0,3.8,1.2,3.8,3.8v12.6c0,2.6-1.2,3.8-3.8,3.8h-24.6c-1.8,0-2.9,1.3-2.9,3.2s1.1,3.2,2.9,3.4l15.7,2.1c9.9,1.5,16.5,5.7,16.5,17.5v11.1c0,12-8.2,18.6-21.9,18.6h-33.4Z"/>
    <path d="M606.7,108.8v-12.6c0-2.6,1.2-3.8,3.8-3.8h10.4v-35.5h-10.4c-2.6,0-3.8-1.2-3.8-3.8v-12.8c0-2.6,1.2-3.8,3.8-3.8h45c2.6,0,3.8,1.2,3.8,3.8v12.8c0,2.6-1.2,3.8-3.8,3.8h-10.2v35.5h10.2c2.6,0,3.8,1.2,3.8,3.8v12.6c0,2.6-1.2,3.8-3.8,3.8h-45c-2.6,0-3.8-1.2-3.8-3.8Z"/>
    <path d="M676.1,112.6c-2.6,0-3.8-1.2-3.8-3.8V40.4c0-2.6,1.2-3.8,3.8-3.8h35.6c17.7,0,26,6.9,26,21.5v32.9c0,14.7-8.2,21.5-26,21.5h-35.6ZM696.2,92.7h12.6c3.4,0,5-1.6,5-5.2v-25.7c0-3.5-1.6-5.1-5-5.1h-12.6v35.9Z"/>
    <path d="M754.8,112.6c-2.6,0-3.8-1.2-3.8-3.8V40.4c0-2.6,1.2-3.8,3.8-3.8h49c2.6,0,3.8,1.2,3.8,3.8v12.4c0,2.6-1.2,3.8-3.8,3.8h-29.1v8.1h20.6c2.6,0,3.8,1.2,3.8,3.8v11.3c0,2.6-1.2,3.8-3.8,3.8h-20.6v9.1h29.1c2.6,0,3.8,1.2,3.8,3.8v12.4c0,2.6-1.2,3.8-3.8,3.8h-49Z"/>
  </g>
  <g>
    <path class="st0" d="M189.4,85.4c-.8-1.4-3.2-1.5-4.3-1.5-4.4.2-9,1.2-13.1,1-5.7-.2-9.9-2.1-14.7-4.7-1.9-1-3.2-2-4.8-3-.7-.4-1.3-.9-1.8-1.2-.4-.3-.5-.3-.7-.5-.2-.1-.4-.3-.4-.3-.3-.3-2-1.8-2.3-1.2-1.5,3.2,0,8.2,1.8,10.8,1.2,1.8,1.9.9,3.2.9.6,0,.9-.3,1.3-.2,1.4.2,2.3.3,3.7.6,3.6.7,6.3,1.6,10.3,2.2,5.3.8,11.5,2.1,17,1.1,1.9-.3,3.3-1.1,4.5-2.7.4-.6.4-1,.1-1.4Z"/>
    <path class="st0" d="M178.1,100.1c-.5-.7-1.6-1.1-2-1.1-2.7-.5-5.7,0-8.5-.4-3.1-.4-6.1-1.2-8.8-2.6-3.6-1.9-6.6-4.7-9.1-7.8-1.5-1.8-2.8-3.8-3.7-6-.9-2.3-1.1-4.8-.7-7.2.4-2.3,1.9-4.4,2-6.8l-4.1.5c2.8-2.4,6.4-2.7,10.1-3.1,2-.2,4.1-.4,6-.9,2.1-.6,7.1-2.8,8.4-5.7.4-.9.5-1.9,0-2.7h0c-1.4-1.9-2.5-3.8-3.5-5.7-2.1-3.7-4-7.3-8-9.7-.7-.4-1.8-.9-3-1.4-2-.9-4.6-2-5.1-2.8-.2-1.4-.4-2.7-.6-4.1-.4-2.8-.8-5.7-1.4-8.6l-.2-.9c-.5-2.5-1.1-5.1-2.2-7.5-1.3-2.8-3.5-4.5-5.9-6.3l-.7-.5c-2.8-2.1-5.9-4-8.9-5.7-1.2-.7-2.5-1.4-3.7-2.2l-.7-.4.3.8c.4,1,.9,2.1,1.3,3.2.7,1.8,1.4,3.7,2.3,5.3,1,1.9,2.7,3.6,4.3,5.2,2.3,2.3,4.7,4.7,5.1,7.7v.2c0,.3.2,1.2,0,1.4-.7-2.1-2-4.3-3.4-5.9-1.9-2.2-10.6-7.6-13.5-9.3-1.9-1.1-3.9-2-5.8-2.9-3.3-1.5-6.8-3.1-9.5-5.6l-.4-.4v.6c0,7.8,4.1,18.1,11.9,22.5,1.5.8,3.5,1.7,5.6,2.7,5.8,2.5,12.9,5.7,14.4,10.2.1.4.2.7.1.8l-2.6-1.6v.4c-2,9.8-9.9,19.1-20.3,23.6-10,4.4-22,3.4-32.6,3-3.4-.1-6.8-.2-10.2-.4-4-.1-6.4-.6-10.4,0-7.2.9-13,4.3-18.1,9.4-.7.7-2.5,2.5-2.5,2.5l1.6-4.2s-6.4-6.2-10.6-6.6c-3.4-.3-7.5.5-11.5,2.3l.2.5c0,0-.2,0-.2,0,.2.2,1.1,1.8,2.5,4.7.2.3.3.5.3.6.3.5.5,1,.7,1.5,1.1,2.4,2.3,4.9,5.1,5.8,2.2.7,4.5.7,6.7.5,0,0,.2,0,.5,0,1.6,0,2.5,0,3-.1-.5,0-2,6.1-2.1,6.8-1.4,5.1,0,11.2-4,15.3-1.5,1.6-3.1,2.1-5.1,2.5-1.4.3-4.4.6-5,2.1-1.1,2.8-1.8,6.1-2.5,9.1-.7,3.4-1.5,7-2.8,10-1.4,3-3.4,5.8-5.4,8.4-1,1.4-2.1,2.8-3,4.2h0c-.2.5-.8,1.3-1.3,2.2-.3.6-.3,1.2,0,1.8.3.6.9.9,1.5.9.3,0,.5,0,.8,0,4.7-.2,6-3.5,7.6-7.2.4-1,.8-2.1,1.4-3.1,3.1-6.2,8.8-17.8,18.2-17.6,2,0,4.2.6,6.4,1.1,2.2.5,4.4,1.1,6.4,1.1,5.8,0,10.5-1.7,16.1-6.2,2.3-1.9,3.9-3.4,5.3-4.8,3.2-3.2,5.3-5.3,13.2-7,9.9-2.2,20-3.6,30.1-4.2,13-.7,26,0,38.3,4.6,4.8,1.8,9.6,3.8,14.7,4.8,1.9.4,3.9.6,5.8.3,1.9-.3,3.8-1.1,5.2-2.5.4-.4.6-.8.2-1.3ZM153.5,49.4c-.9.5-2.2.4-3-.2-.2-.2-.5-.4-.7-.7s-.4-.9-.4-1.5h0c.2-1.5,1.5-2,2.5-1.9,1.3,0,2.7.9,2.8,2.3,0,1.1-.7,1.7-1.2,2ZM37.4,91.2h0s0,0,0,0Z"/>
    <path class="st0" d="M33.7,88.2c-1.4-1.1-3.9,1.8-5.2,2.8-2.9,2.2-6.3,4.1-9.8,5.2-1.1.4-2.3.1-3.1,1-.8.9-.7,2.4-1,3.5-.7,2.9-1.7,5.5-3.1,8.1-1.4,2.7-2.8,5.1-4.7,7.5-.6.8-1.6,1.8-2.4,2.5-1.2,1.1-3,3.2-3.6,4.3-.6,1.1-1.4,2.4-.2,2.9,1.8.7,3.8-.7,5.3-2.1,3.4-3,7-6.6,9.3-10.6,1.2-2.1,1.5-4.2,2.3-6.5.6-1.8,1.6-4.3,3.5-5.3,1.4-.8,2.8-.7,4.5-1.2,1.7-.5,3.4-.3,4.9-1.9,1.5-1.6,2.3-3.6,2.8-6.8.2-1.2.4-3.4.3-3.4Z"/>
  </g>
</svg>