<?xml version="1.0" encoding="UTF-8"?>
<svg id="Layer_1" xmlns="http://www.w3.org/2000/svg" version="1.1" viewBox="0 0 729.1 81.4">
  <defs>
    <style>
      .st0 {
        fill: #0071bc;
        fill-rule: evenodd;
      }
    </style>
  </defs>
  <g>
    <path d="M166.9,79.3c-2.6,0-3.8-1.2-3.8-3.8V7.1c0-2.6,1.2-3.8,3.8-3.8h16.4c2.6,0,3.8,1.2,3.8,3.8v52.3h14.5v-17.1c0-2.6,1.2-3.8,3.8-3.8h15.3c2.6,0,3.8,1.2,3.8,3.8v33.3c0,2.6-1.2,3.8-3.8,3.8h-53.7Z"/>
    <path d="M254.2,79.3h-15.5c-2.6,0-3.8-1.2-3.8-3.8v-27.9c0-4.2,1.3-9.5,4.1-16.9l9.2-24c.8-2.4,2.5-3.5,5.4-3.5h28.4c2.7,0,4.4,1.1,5.3,3.5l9.2,24c2.9,7.4,4.1,12.7,4.1,16.9v27.9c0,2.6-1.2,3.8-3.8,3.8h-15.9c-2.9,0-4.1-1.2-4.1-3.8v-14.8h-18.7v14.8c0,2.6-1.2,3.8-3.8,3.8ZM259.1,41.5h16.6l-5-16c-.5-1.3-1.2-1.8-2-1.8h-2.6c-.8,0-1.5.5-2,1.8l-5,16Z"/>
    <path d="M317.3,79.3c-2.6,0-3.8-1.2-3.8-3.8V7.1c0-2.6,1.2-3.8,3.8-3.8h16.4c2.6,0,3.8,1.2,3.8,3.8v24.3h4.2l10.9-24.6c1.1-2.5,2.5-3.5,5.3-3.5h16.3c2.4,0,3.3,1.3,2.3,3.5l-10.8,24.6c7.9.4,13,5.9,13,14.4v29.8c0,2.6-1.2,3.8-3.8,3.8h-16.3c-2.6,0-3.8-1.2-3.8-3.8v-20.6c0-2.3-1.2-3.6-3.4-3.6h-13.9v24.2c0,2.6-1.2,3.8-3.8,3.8h-16.4Z"/>
    <path d="M396.1,79.3c-2.6,0-3.8-1.2-3.8-3.8V7.1c0-2.6,1.2-3.8,3.8-3.8h49c2.6,0,3.8,1.2,3.8,3.8v12.4c0,2.6-1.2,3.8-3.8,3.8h-29.1v8.1h20.6c2.6,0,3.8,1.2,3.8,3.8v11.3c0,2.6-1.2,3.8-3.8,3.8h-20.6v9.1h29.1c2.6,0,3.8,1.2,3.8,3.8v12.4c0,2.6-1.2,3.8-3.8,3.8h-49Z"/>
    <path d="M463.2,79.3c-2.6,0-3.8-1.2-3.8-3.8v-12.4c0-2.6,1.2-3.8,3.8-3.8h28.4c1.8,0,2.7-1.4,2.7-3.1,0-2.4-1-3.4-2.7-3.6l-15.8-2.2c-9.9-1.5-16.4-5.7-16.4-17.5v-11.1c0-12,8.1-18.6,21.9-18.6h29.6c2.6,0,3.8,1.2,3.8,3.8v12.6c0,2.6-1.2,3.8-3.8,3.8h-24.6c-1.8,0-2.9,1.3-2.9,3.2s1.1,3.2,2.9,3.4l15.7,2.1c9.9,1.5,16.5,5.7,16.5,17.5v11.1c0,12-8.2,18.6-21.9,18.6h-33.4Z"/>
    <path d="M528.3,75.5v-12.6c0-2.6,1.2-3.8,3.8-3.8h10.4V23.7h-10.4c-2.6,0-3.8-1.2-3.8-3.8V7.1c0-2.6,1.2-3.8,3.8-3.8h45c2.6,0,3.8,1.2,3.8,3.8v12.8c0,2.6-1.2,3.8-3.8,3.8h-10.2v35.5h10.2c2.6,0,3.8,1.2,3.8,3.8v12.6c0,2.6-1.2,3.8-3.8,3.8h-45c-2.6,0-3.8-1.2-3.8-3.8Z"/>
    <path d="M597.6,79.3c-2.6,0-3.8-1.2-3.8-3.8V7.1c0-2.6,1.2-3.8,3.8-3.8h35.6c17.7,0,26,6.9,26,21.5v32.9c0,14.7-8.2,21.5-26,21.5h-35.6ZM617.8,59.4h12.6c3.4,0,5-1.6,5-5.2v-25.7c0-3.5-1.6-5.1-5-5.1h-12.6v35.9Z"/>
    <path d="M676.4,79.3c-2.6,0-3.8-1.2-3.8-3.8V7.1c0-2.6,1.2-3.8,3.8-3.8h49c2.6,0,3.8,1.2,3.8,3.8v12.4c0,2.6-1.2,3.8-3.8,3.8h-29.1v8.1h20.6c2.6,0,3.8,1.2,3.8,3.8v11.3c0,2.6-1.2,3.8-3.8,3.8h-20.6v9.1h29.1c2.6,0,3.8,1.2,3.8,3.8v12.4c0,2.6-1.2,3.8-3.8,3.8h-49Z"/>
  </g>
  <path class="st0" d="M21.5,15.7c-3.7,2.8-8.8,6.7-16.2,6.7S0,20,0,17.1s2.4-5.3,5.3-5.3,6-1.7,10-4.8l.3-.2C19.3,3.9,24.4,0,31.8,0s12.5,3.9,16.2,6.7l.3.2c4,3.1,6.5,4.8,10,4.8s6-1.7,10-4.8l.3-.2c3.7-2.8,8.8-6.7,16.2-6.7s12.5,3.9,16.2,6.7l.3.2c4,3.1,6.5,4.8,10,4.8s5.3,2.4,5.3,5.3-2.4,5.3-5.3,5.3c-7.4,0-12.5-3.9-16.2-6.7l-.3-.2c-4-3.1-6.5-4.8-10-4.8s-6,1.7-10,4.8l-.3.2c-3.7,2.8-8.8,6.7-16.2,6.7s-12.5-3.9-16.2-6.7l-.3-.2c-4-3.1-6.5-4.8-10-4.8s-6,1.7-10,4.8l-.3.2ZM21.5,45.1c-3.7,2.8-8.8,6.7-16.2,6.7s-5.3-2.4-5.3-5.3,2.4-5.3,5.3-5.3,6-1.7,10-4.8l.3-.2c3.7-2.8,8.8-6.7,16.2-6.7s12.5,3.9,16.2,6.7l.3.2c4,3.1,6.5,4.8,10,4.8s6-1.7,10-4.8l.3-.2c3.7-2.8,8.8-6.7,16.2-6.7s12.5,3.9,16.2,6.7l.3.2c4,3.1,6.5,4.8,10,4.8s5.3,2.4,5.3,5.3-2.4,5.3-5.3,5.3c-7.4,0-12.5-3.9-16.2-6.7l-.3-.2c-4-3.1-6.5-4.8-10-4.8s-6,1.7-10,4.8l-.3.2c-3.7,2.8-8.8,6.7-16.2,6.7s-12.5-3.9-16.2-6.7l-.3-.2c-4-3.1-6.5-4.8-10-4.8s-6,1.7-10,4.8l-.3.2ZM5.3,81.4c7.4,0,12.5-3.9,16.2-6.7l.3-.2c4-3.1,6.5-4.8,10-4.8s6,1.7,10,4.8l.3.2c3.7,2.8,8.8,6.7,16.2,6.7s12.5-3.9,16.2-6.7l.3-.2c4-3.1,6.5-4.8,10-4.8s6,1.7,10,4.8l.3.2c3.7,2.8,8.8,6.7,16.2,6.7s5.3-2.4,5.3-5.3-2.4-5.3-5.3-5.3-6-1.7-10-4.8l-.3-.2c-3.7-2.8-8.8-6.7-16.2-6.7s-12.5,3.9-16.2,6.7l-.3.2c-4,3.1-6.5,4.8-10,4.8s-6-1.7-10-4.8l-.3-.2c-3.7-2.8-8.8-6.7-16.2-6.7s-12.5,3.9-16.2,6.7l-.3.2c-4,3.1-6.5,4.8-10,4.8S0,73.1,0,76s2.4,5.3,5.3,5.3Z"/>
</svg>
